<svg xmlns="http://www.w3.org/2000/svg" xmlns:xlink="http://www.w3.org/1999/xlink" version="1.1" x="0px" y="0px" viewBox="0 0 100 100" enable-background="new 0 0 100 100" xml:space="preserve"><rect x="68.417" y="11.576" width="14.721" height="6.232"/><rect x="47.019" y="11.558" width="16.148" height="18.972"/><rect x="68.417" y="24.254" width="14.721" height="6.23"/><path d="M94.394,2.586V0H36.342v2.261c-0.016,0.114-0.068,0.217-0.068,0.335v32.385H14.706v0.002  C9.084,35.004,4.534,39.682,4.519,45.462L4.5,45.49v50.639c0,1.761,1.172,3.192,2.617,3.192h0.002v0.307H59.9  c1.445,0,2.617-1.161,2.617-2.595V79.851h21.28c5.852,0,10.598-4.705,10.598-10.513V2.597C94.396,2.592,94.394,2.59,94.394,2.586z   M58.85,40.188c-0.916,1.559-1.481,3.347-1.481,5.28l-0.032,1.701h-6.697v-1.913c0.078-2.592,2.024-4.698,4.555-5.068H58.85z   M9.736,64.394h6.631v6.581H9.736V64.394z M50.639,64.394h6.626l0.007,6.581h-6.633V64.394z M57.255,52.379l0.004,6.807h-6.62  v-6.807H57.255z M16.367,59.186H9.736v-6.807h6.631V59.186z M9.736,76.186h6.631v6.579H9.736V76.186z M16.367,87.975v6.441H9.736  v-6.441H16.367z M50.639,87.975h6.645v6.441h-6.645V87.975z M57.281,82.765h-6.643v-6.579h6.638L57.281,82.765z M14.726,40.188  h1.641v6.98H9.736v-2.95C10.292,41.907,12.307,40.188,14.726,40.188z M62.518,50.19l0.084-4.723c0-2.927,2.396-5.302,5.346-5.302  c2.954,0,5.343,2.375,5.343,5.302l-0.084,23.871c0,1.951,0.569,3.755,1.504,5.32H62.518V50.19z M89.13,69.338  c0,2.929-2.391,5.302-5.343,5.302s-5.348-2.373-5.348-5.302l0.021-5.607c0.003-0.023,0.014-0.044,0.014-0.069l0.084-18.194  c0-5.706-4.591-10.326-10.308-10.481l0.003-0.004h-0.051c-0.079-0.005-0.157-0.025-0.238-0.025c-0.083,0-0.161,0.021-0.24,0.025  H55.982v-0.081c-0.27,0-0.522,0.06-0.787,0.081H41.512V5.193H89.16v64.145H89.13z"/></svg>
