<svg xmlns="http://www.w3.org/2000/svg" xmlns:xlink="http://www.w3.org/1999/xlink" version="1.1" x="0px" y="0px" viewBox="0 0 50 50" style="enable-background:new 0 0 50 50;" xml:space="preserve"><g><path d="M43.3,5.7V3.9C43.3,2.3,42,1,40.4,1c-1.6,0-2.9,1.3-2.9,2.9v1.8H12.6V3.9c0-1.6-1.3-2.9-2.9-2.9S6.7,2.3,6.7,3.9v1.8H1v9.9   h48V5.7H43.3z"/><path d="M1,49h48V17.6H1V49z M34.6,21.8h9.2v8.6h-9.2V21.8z M34.6,35.4h9.2V44h-9.2V35.4z M20.4,21.8h9.2v8.6h-9.2V21.8z    M20.4,35.4h9.2V44h-9.2V35.4z M6.1,21.8h9.2v8.6H6.1V21.8z M6.1,35.4h9.2V44H6.1V35.4z"/></g></svg>
