<svg xmlns="http://www.w3.org/2000/svg" xmlns:xlink="http://www.w3.org/1999/xlink" version="1.1" x="0px" y="0px" viewBox="0 0 100 100" style="enable-background:new 0 0 100 100;" xml:space="preserve"><g><path d="M77.2,74.1l-1.1-11.7c-0.8-8-6.1-14.5-13.3-17c-3.4,3-7.9,4.9-12.8,4.9s-9.4-1.8-12.8-4.9c-7.2,2.5-12.5,9-13.3,17   l-1.1,11.7c-0.3,2.9,1.7,5.5,4.5,6.1l15.9,3.2c4.5,0.9,9.2,0.9,13.7,0l15.9-3.2C75.6,79.6,77.5,77,77.2,74.1z"/><path d="M43,44.3c2.1,1.1,4.5,1.7,7,1.7s4.9-0.6,7-1.7c4.8-2.5,8-7.5,8-13.3c0-8.3-6.7-15.1-15.1-15.1c-8.3,0-15.1,6.7-15.1,15.1   C34.9,36.7,38.2,41.7,43,44.3z"/></g></svg>
