<svg xmlns="http://www.w3.org/2000/svg" xmlns:xlink="http://www.w3.org/1999/xlink" version="1.1" x="0px" y="0px" viewBox="0 0 32 32" enable-background="new 0 0 32 32" xml:space="preserve"><g display="none"><g display="inline"><path d="M30.279,1C30.677,1,31,1.342,31,1.764v21.504c0,0.421-0.323,0.764-0.721,0.764H13.684c-0.536,0-1.055,0.159-1.508,0.463    l-7.454,5.087l1.275-4.252l0.386-1.287H5.04H1.721C1.323,24.042,1,23.7,1,23.279V1.764C1,1.342,1.323,1,1.721,1H30.279 M30.279,0    H1.721C0.771,0,0,0.79,0,1.764v21.515c0,0.974,0.771,1.764,1.721,1.764H5.04L2.953,32l9.788-6.68    c0.28-0.189,0.609-0.289,0.944-0.289h16.595c0.95,0,1.721-0.79,1.721-1.764V1.764C32,0.79,31.229,0,30.279,0L30.279,0z"/></g><g display="inline"><g><path d="M20.655,6.224c1.183,0,2.306,0.236,3.345,0.702v11.441c-0.91-0.296-2.181-0.589-3.643-0.589     c-1.535,0-2.998,0.321-4.357,0.954c-1.359-0.633-2.822-0.954-4.357-0.954c-1.462,0-2.733,0.293-3.643,0.589V6.926     c1.04-0.466,2.162-0.702,3.345-0.702c2.356,0,4.167,0.944,4.182,0.952l0.472,0.251l0.471-0.249     C16.488,7.167,18.298,6.224,20.655,6.224 M20.655,5.224C17.994,5.224,16,6.294,16,6.294s-1.994-1.07-4.655-1.071     c-1.336,0-2.84,0.27-4.345,1.081v13.544c0,0,1.977-1.071,4.643-1.071c1.333,0,2.839,0.268,4.357,1.071     c1.517-0.803,3.023-1.071,4.357-1.071c2.667,0,4.643,1.071,4.643,1.071V6.305C23.496,5.494,21.991,5.224,20.655,5.224     L20.655,5.224z"/></g><line fill="none" stroke="#000000" stroke-miterlimit="10" x1="16" y1="6.786" x2="16" y2="19.301"/></g></g><g display="none"><g display="inline"><path d="M30,2v21.031H13.684c-0.735,0-1.448,0.218-2.071,0.637l-5.121,3.495l0.464-1.546l0.772-2.575H5.04H2V2H30 M30.279,0H1.721    C0.771,0,0,0.79,0,1.764v21.515c0,0.974,0.771,1.764,1.721,1.764H5.04L2.953,32l9.788-6.68c0.28-0.189,0.609-0.289,0.944-0.289    h16.595c0.95,0,1.721-0.79,1.721-1.764V1.764C32,0.79,31.229,0,30.279,0L30.279,0z"/></g><g display="inline"><path d="M20.655,7.224c0.819,0,1.604,0.128,2.345,0.382v9.456c-0.774-0.165-1.667-0.283-2.643-0.283    c-1.525,0-2.986,0.289-4.357,0.861c-1.37-0.572-2.832-0.861-4.357-0.861c-0.976,0-1.87,0.118-2.643,0.283V7.605    c0.741-0.254,1.526-0.382,2.345-0.382c2.086,0,3.704,0.83,3.709,0.833l0.943,0.494l0.938-0.489    C16.951,8.054,18.569,7.224,20.655,7.224 M20.655,5.224C17.994,5.224,16,6.294,16,6.294s-1.994-1.07-4.655-1.071    c-1.336,0-2.84,0.27-4.345,1.081v13.544c0,0,1.977-1.071,4.643-1.071c1.333,0,2.839,0.268,4.357,1.071    c1.517-0.803,3.023-1.071,4.357-1.071c2.667,0,4.643,1.071,4.643,1.071V6.305C23.496,5.494,21.991,5.224,20.655,5.224    L20.655,5.224z"/></g><line display="inline" fill="none" stroke="#000000" stroke-width="2" stroke-miterlimit="10" x1="16" y1="6.786" x2="16" y2="19.301"/></g><g display="none"><rect x="-218.251" y="-164.068" display="inline" fill="#000000" width="525.184" height="207.333"/></g><g display="none"><path display="inline" fill="#000000" d="M30,2v21.031H13.684c-0.735,0-1.448,0.218-2.071,0.637l-5.121,3.495l0.464-1.546   l0.772-2.575H5.04H2V2H30 M30.279,0H1.721C0.771,0,0,0.79,0,1.764v21.515c0,0.974,0.771,1.764,1.721,1.764H5.04L2.953,32   l9.788-6.68c0.28-0.189,0.609-0.289,0.944-0.289h16.595c0.95,0,1.721-0.79,1.721-1.764V1.764C32,0.79,31.229,0,30.279,0L30.279,0z"/><path display="inline" fill="#000000" d="M20.655,7.224c0.819,0,1.604,0.128,2.345,0.382v9.456   c-0.774-0.165-1.667-0.283-2.643-0.283c-1.525,0-2.986,0.289-4.357,0.861c-1.37-0.572-2.832-0.861-4.357-0.861   c-0.976,0-1.87,0.118-2.643,0.283V7.605c0.741-0.254,1.526-0.382,2.345-0.382c2.086,0,3.704,0.83,3.709,0.833l0.943,0.494   l0.938-0.489C16.951,8.054,18.569,7.224,20.655,7.224 M20.655,5.224C17.994,5.224,16,6.294,16,6.294s-1.994-1.07-4.655-1.071   c-1.336,0-2.84,0.27-4.345,1.081v13.544c0,0,1.977-1.071,4.643-1.071c1.333,0,2.839,0.268,4.357,1.071   c1.517-0.803,3.023-1.071,4.357-1.071c2.667,0,4.643,1.071,4.643,1.071V6.305C23.496,5.494,21.991,5.224,20.655,5.224L20.655,5.224   z"/><rect x="15" y="6.786" display="inline" fill="#000000" width="2" height="12.516"/></g><g><path d="M30.279,0H1.721C0.771,0,0,0.79,0,1.763v21.515c0,0.974,0.771,1.764,1.721,1.764H5.04L2.953,32l9.787-6.68   c0.28-0.189,0.609-0.289,0.944-0.289h16.595c0.95,0,1.721-0.79,1.721-1.763V1.763C32,0.79,31.229,0,30.279,0z M30,23.031H13.684   c-0.735,0-1.448,0.218-2.071,0.637l-5.121,3.495l0.464-1.546l0.772-2.575H5.04H2V2h28V23.031z"/><path d="M16,19.849c1.518-0.803,3.023-1.071,4.357-1.071c2.667,0,4.643,1.071,4.643,1.071V6.305   c-1.504-0.811-3.009-1.081-4.345-1.081C17.994,5.224,16,6.294,16,6.294s-1.994-1.07-4.655-1.071c-1.336,0-2.84,0.27-4.345,1.081   v13.544c0,0,1.977-1.071,4.643-1.071C12.977,18.778,14.482,19.046,16,19.849z M17,8.031c0.297-0.142,1.781-0.807,3.655-0.807   c0.819,0,1.604,0.128,2.345,0.382v9.456c-0.774-0.165-1.667-0.283-2.643-0.283c-1.16,0-2.283,0.17-3.357,0.501V8.031z M9,7.605   c0.741-0.254,1.526-0.382,2.345-0.382c1.898,0,3.393,0.68,3.655,0.806v9.249c-1.074-0.332-2.196-0.501-3.356-0.501   c-0.976,0-1.87,0.118-2.643,0.283V7.605z"/></g></svg>
