<svg xmlns="http://www.w3.org/2000/svg" xmlns:xlink="http://www.w3.org/1999/xlink" version="1.1" x="0px" y="0px" viewBox="0 0 100 100" enable-background="new 0 0 100 100" xml:space="preserve"><path d="M74,66.8h-0.2c1.3,0,2.1-1.1,2.1-2.3V13.2c0-1.3-0.8-2.2-2.1-2.2H30.4c-2.9,0-5.4,2.2-5.4,5.1v55c0,0,0,0,0,0v0  c0,4.9,4.2,8.9,9.1,8.9H35v6.8c0,0.9,0.3,1.8,1.2,2.1c0.3,0.1,0.5,0.2,0.8,0.2c0.6,0,1.1-0.2,1.5-0.6l3.4-3.2l3.5,3.2  c0.7,0.6,1.5,0.8,2.4,0.4c0.8-0.4,1.2-1.2,1.2-2.1V80h24.9c1.3,0,2.3-1,2.3-2.3s-0.9-2.3-2.2-2.3c-2.3,0-4-1.9-4-4.2V71  C70,68.6,71.7,66.8,74,66.8z M66,75H49v-4.4c0-1.3-0.7-2.3-2-2.3s-2,1.1-2,2.3v10.9l-1.3-1c-0.9-0.8-2.5-0.8-3.4,0l-1.3,1V70.6  c0-1.3-0.7-2.3-2-2.3s-2,1.1-2,2.3V75h-0.9c-2.3,0-4.1-1.6-4.1-3.9V71c0-2.3,1.8-4,4.1-4H66c-0.7,1-1,2.4-1,4v0.1  C65,72.6,65.3,74,66,75z"/></svg>
