<svg xmlns="http://www.w3.org/2000/svg" xmlns:xlink="http://www.w3.org/1999/xlink" xml:space="preserve" version="1.1" style="shape-rendering:geometricPrecision;text-rendering:geometricPrecision;image-rendering:optimizeQuality;" viewBox="0 0 847 847" x="0px" y="0px" fill-rule="evenodd" clip-rule="evenodd"><defs><style type="text/css">
   
    .fil0 {fill:black}
   
  </style></defs><g><path class="fil0" d="M423 22c137,0 248,111 248,247 0,133 -175,356 -248,474 -73,-118 -247,-341 -247,-474 0,-136 111,-247 247,-247zm177 741c0,83 -353,83 -353,0 0,-36 64,-56 137,-61 14,20 27,40 39,61 13,-21 26,-41 40,-61 73,5 137,25 137,61zm-177 -560c37,0 67,30 67,66 0,37 -30,66 -67,66 -36,0 -66,-29 -66,-66 0,-36 30,-66 66,-66z"/></g></svg>
