<svg xmlns="http://www.w3.org/2000/svg" xmlns:xlink="http://www.w3.org/1999/xlink" version="1.1" x="0px" y="0px" viewBox="0 0 100 100" style="enable-background:new 0 0 100 100;" xml:space="preserve"><g><path d="M94.9,68.1L94,58.6c-0.6-6.5-5-11.7-10.8-13.8c-2.8,2.5-6.4,4-10.4,4s-7.6-1.5-10.4-4c-2.1,0.7-4,1.9-5.6,3.4   c3.3,3.8,5.5,8.6,6,13.7l1.1,11.7c0,0.5,0.1,0.9,0,1.4l3.4,0.7c3.7,0.7,7.4,0.7,11.1,0l12.9-2.6C93.5,72.6,95.1,70.5,94.9,68.1z"/><path d="M67.1,43.4c1.7,0.9,3.6,1.4,5.7,1.4s4-0.5,5.7-1.4c3.9-2.1,6.5-6.1,6.5-10.8c0-6.7-5.5-12.2-12.2-12.2s-12.2,5.5-12.2,12.2   C60.5,37.3,63.2,41.3,67.1,43.4z"/><path d="M54,51.5c-2.3-2.8-5.3-4.9-8.8-6.2c-3.4,3-7.9,4.9-12.8,4.9s-9.4-1.8-12.8-4.9c-7.2,2.5-12.5,9-13.3,17L5.1,74.1   c-0.3,2.9,1.7,5.5,4.5,6.1l15.9,3.2c1.1,0.2,2.3,0.4,3.4,0.5s2.3,0.2,3.4,0.2c1.1,0,2.3-0.1,3.4-0.2c1.1-0.1,2.3-0.3,3.4-0.5   L55,80.2c2.8-0.6,4.8-3.2,4.5-6v-0.1l-1.1-11.7C58.1,58.2,56.5,54.5,54,51.5z"/><path d="M25.3,44.3c2.1,1.1,4.5,1.7,7,1.7c2.6,0,4.9-0.6,7-1.7c4.8-2.5,8-7.5,8-13.3c0-8.3-6.7-15.1-15.1-15.1   c-8.3,0-15.1,6.7-15.1,15.1C17.3,36.7,20.6,41.7,25.3,44.3z"/></g></svg>
